<?xml version="1.0" encoding="iso-8859-1"?>
<!-- Generator: Adobe Illustrator 25.2.3, SVG Export Plug-In . SVG Version: 6.00 Build 0)  -->
<svg version="1.1" id="Calque_1" xmlns="http://www.w3.org/2000/svg" xmlns:xlink="http://www.w3.org/1999/xlink" x="0px" y="0px"
	 width="1440px" height="630px" viewBox="0 0 1440 630" enable-background="new 0 0 1440 630" xml:space="preserve">
<g>
	<path fill="none" stroke="#0000FF" stroke-linecap="round" stroke-linejoin="round" stroke-miterlimit="10" d="M0,15.792
		c100.052,110.253,231.976-68.261,286.519,0.451c25.371,31.962-23.107,56.928-23.107,56.928c-4.59,2.8-7.634,8.285-8.627,13.456
		c-1.604,8.355-1.215,18.078-7.465,23.858c-0.465,0.429-0.954,0.816-1.456,1.174c-0.55,0.16-1.029,0.481-1.543,0.818
		c-1.046,0.685-2.118,1.192-3.303,1.593c-2.465,0.836-5.041,1.292-7.603,1.72c-4.566,0.764-9.336,1.403-13.413,3.752
		c-2.817,1.622-5.347,5.101-3.731,7.92c0.754,1.314,2.236,2.085,3.002,3.392c1.348,2.299-0.127,5.418-2.418,6.783
		c-2.292,1.365-5.098,1.449-7.766,1.494c-8.821,0.151-18.767-0.148-24.795-6.583c-5.16-5.509-8.211-15.557-15.713-14.677
		c-6.979,0.819-8.289,10.735-5.661,17.245c2.166,5.365,5.55,10.373,5.971,16.284c-0.007-0.088-0.02-0.174-0.027-0.262
		c0.074,1.268-0.023,2.542-0.35,3.827c-1.887,7.408-10.839,10.947-18.442,10.063c-7.602-0.883-14.913-10.2-22.072-12.902
		c-10.474-3.953-27.093-5.526-38-2.996c-3.452,0.8-1.368,7.681-4.346,9.599c-2.755,1.774-5.287,5.333-3.515,8.086
		c1.97,3.061,7.137,1.844,9.72,4.41c3.663,3.639-1.257,9.445-1.693,14.586c-0.492,5.793,5.162,10.336,10.742,11.991
		c5.58,1.654,11.664,1.629,16.916,4.135c6.48,3.091,11.442,9.852,17.755,12.396c0,0,6.179,4.693,8.217,4.479
		c2.037-0.215,14.406-1.43,18.08,0c2.674,1.041,6.224,1.979,5.238,4.67c-1.468,4.006-11.962-2.173-14.537-1.574
		c-6.481,1.508-4.498,7.669-4.529,14.316c-0.031,6.646,4.94,12.991,11.407,14.559c2.998,0.727,6.166,0.727,9.178,1.336l-0.294,0.18
		c0.028,0.009,0.055,0.022,0.083,0.032c0.251,0.089,0.5,0.185,0.745,0.294c5.22,2.321,7.315,8.621,7.855,14.303
		c0.54,5.681,0.165,11.683,2.745,16.775c2.11,4.166,2.618,7.689,5.355,11.473c5.294,7.32,9.321,17.165,5.062,25.13
		c-3.94-7.096-9.453-24.057-16.943-27.194c1.329,22.014-4.081,55.603-13.9,75.356c-3.587,7.215-7.872,15.913-3.63,22.763
		c5.134,8.291,17.364,6.201,27.123,6.051c2.335-0.036,4.648,0.102,6.944,0.38c28.603,3.454,63.68,31.949,92.195,26.172
		c4.468-0.905,8.896-2.662,12.147-5.855c5.34-5.246-2.697-16.174,1.001-22.681c5.979-10.522,18.082-15.984,30.365-16.494
		c0.002-0.001,0.003-0.001,0.005-0.002c3.626-0.152,7.268,0.129,10.772,0.84c10.676,2.167,20.492,7.57,31.187,9.639
		c23.629,4.572,49.509-9.862,58.011-32.353c1.413-3.738,2.297-8.229,0.002-11.501c-1.937-2.763-5.488-3.739-8.572-5.11
		c0,0-5.002-3.743-8.032-15.218c-0.086-0.327-1.898-8.198-3.07-17.097c-0.876-6.65-1.396-13.874-0.568-18.952
		c0.968-5.933,2.638-11.995,1.303-17.857c-1.335-5.861-7.123-11.297-12.906-9.633c-3.427,0.987-5.752,4.052-8.483,6.344
		c-2.731,2.291-7.003,3.801-9.701,1.471c-2.274-1.964-2.083-5.474-1.453-8.438c0.019-0.089,0.037-0.178,0.056-0.265
		c2.85-12.755,9.453-24.65,18.774-33.821c5.02-4.939,10.785-9.087,15.692-14.138l2.213-2.441c3.885-4.576,6.911-9.962,7.415-15.887
		c0.796-9.347-4.581-19.559,0.148-27.663c2.311-3.961,6.926-7.142,6.605-11.715c-0.347-4.931-6.074-7.32-10.841-8.649
		c-15.292-4.263-30.493-8.843-45.693-13.421c-8.122-2.447-9.68-6.597-17.407-10.097c-5.023-2.275-9.782-7.832-14.465-10.832
		c0-0.001,0.001-0.002,0.001-0.004c-0.076-0.047-0.151-0.097-0.227-0.144c0.057,0.035,0.115,0.076,0.172,0.113
		c-4.922-2.995-16.256-1.639-20.986-4.886c-5.809-3.988-11.695-8.048-16.209-13.454c-2.329-2.79-4.258-5.901-6.689-8.602
		c-0.255-0.283-0.514-0.56-0.779-0.834"/>
	<path fill="none" stroke="#0000FF" stroke-linecap="round" stroke-linejoin="round" stroke-miterlimit="10" d="M1124,630
		c-210-170.799-388-92.89-532-94.371c-110.288,0-145-56.933-136.898-109.077c0.919-5.912,0.129-8.911,0.129-8.911
		c1.937-7.197,5.389-14.196,4.657-21.566c-0.431-4.335-2.304-8.446-2.555-12.795c-0.207-3.594,0.249-8.135-2.914-9.835l-0.89-0.283
		c-2.138-0.451-4.278,1.206-5.093,3.237c-0.815,2.032-0.613,4.318-0.29,6.483c0.168,1.134,0.346,2.376-0.252,3.353
		c-0.339,0.554-0.888,0.943-1.433,1.295c-6.34,4.095-14.722,5.771-18.784,12.144c-3.322,5.209-2.598,12.156-0.042,17.782
		c2.555,5.626,6.695,10.344,10.264,15.386c1.431,2.022,2.808,4.14,4.748,5.677s3.758,2.41,6.074,1.544"/>
	<path fill="none" stroke="#0000FF" stroke-linecap="round" stroke-linejoin="round" stroke-miterlimit="10" d="M151.689,439.643
		c-3.246,0.715-5.089,5.024-3.372,7.884c0.939,1.562,2.654,2.594,3.364,4.274c0.96,2.27-0.21,4.977,0.572,7.315
		c1.16,3.465,5.849,4.408,7.658,7.579c0.661,1.16,0.652,2.993-0.591,3.471c-1.659,0.638-2.833-1.757-4.481-2.425
		c-1.384-0.561-3.047,0.285-3.785,1.588c-0.737,1.304-0.716,2.917-0.388,4.38c0.838,3.738,3.822,7.059,7.578,7.712
		s7.955-1.841,8.697-5.598c0.436-2.206-0.24-4.62,0.681-6.669c0.677-1.509,2.09-2.521,3.223-3.723
		c1.133-1.201,2.049-2.942,1.407-4.465c-0.69-1.635-2.95-2.439-3.072-4.21c-0.133-1.942,2.36-2.934,3.181-4.696
		c0.974-2.092-0.816-4.583-2.97-5.392c-2.153-0.809-4.535-0.518-6.831-0.643c-2.295-0.124-4.843-0.886-5.892-2.943
		c-0.337-0.661-0.523-1.388-0.812-2.073C154.964,438.9,151.689,439.643,151.689,439.643z"/>
	<path fill="none" stroke="#0000FF" stroke-linecap="round" stroke-linejoin="round" stroke-miterlimit="10" d="M176.85,451.493
		c-0.326,0.798-0.24,1.842,0.423,2.377c0.95,0.767,2.532-0.113,2.694-1.342s-1.143-2.861-1.917-2.825
		C177.276,449.738,177.176,450.695,176.85,451.493z"/>
	<path fill="none" stroke="#0000FF" stroke-linecap="round" stroke-linejoin="round" stroke-miterlimit="10" d="M203.731,453.073
		c-3.118,0.614-4.741,4.953-2.792,7.462c1.735,2.233,5.157,2.562,6.925,4.768c0.444,0.553,0.772,1.214,1.328,1.654
		c1.104,0.872,2.679,0.605,4.085,0.681c1.406,0.076,3.099,1.037,2.813,2.414c-0.258,1.242-1.821,1.572-2.958,2.134
		c-0.993,0.491-1.836,1.398-1.998,2.494c-0.163,1.096,0.519,2.325,1.603,2.555c1.546,0.328,2.904-1.314,4.484-1.277
		c2.702,0.062,3.144,4.403,5.66,5.388c1.756,0.687,3.77-0.706,4.449-2.465c0.679-1.758,0.394-3.723,0.099-5.584
		c-0.391-2.473-0.82-5.043-2.26-7.092c-1.152-1.64-2.859-2.806-4.155-4.334c-1.346-1.585-2.194-3.543-3.532-5.134
		C211.501,449.623,203.731,453.073,203.731,453.073z"/>
	<path fill="none" stroke="#0000FF" stroke-linecap="round" stroke-linejoin="round" stroke-miterlimit="10" d="M265.698,453.827
		c-0.156-2.566-2.058-4.003-2.502-6.043c-0.452-2.08,1.314-4.289,3.437-4.497c2.124-0.208,4.206,1.435,4.692,3.508
		c0.452,1.928-0.208,4.258,1.135,5.716c0.503,0.546,1.209,0.855,1.9,1.129c1.782,0.706,3.616,1.281,5.481,1.721
		c1.718,0.406,3.555,0.74,4.868,1.917c1.312,1.176,1.721,3.551,0.307,4.604c-1.773,1.321-4.173-0.495-6.384-0.603
		c-2.552-0.124-4.597,2.071-7.055,2.764c-2.807,0.791-5.778-0.45-8.691-0.304c-0.442,0.022-0.917,0.093-1.231,0.404
		c-0.521,0.516-0.338,1.377-0.146,2.085c0.746,2.757,1.003,5.861-0.437,8.328c-1.44,2.468-5.087,3.751-7.293,1.931
		c-2.63-2.169-1.486-6.606-3.376-9.441c-0.454-0.681-1.069-1.243-1.533-1.916c-1.395-2.025-1.219-4.799-0.24-7.054
		c0.872-2.01,2.602-3.899,4.795-3.977c2.319-0.082,4.156,1.805,6.167,2.962c2.01,1.158,5.35,1.074,5.835-1.191L265.698,453.827z"/>
	<path fill="none" stroke="#0000FF" stroke-linecap="round" stroke-linejoin="round" stroke-miterlimit="10" d="M282.37,474.309
		c-1.734-0.233-2.888,0.823-4.024,1.782c-0.602,0.508-1.143,1.138-1.341,1.9c-0.458,1.762,1.302,3.577,3.124,3.534
		c1.823-0.043,3.382-1.551,3.915-3.291C284.565,476.534,284.104,474.542,282.37,474.309z"/>
	<path fill="none" stroke="#0000FF" stroke-linecap="round" stroke-linejoin="round" stroke-miterlimit="10" d="M295.034,453.792
		c-0.713,0.064-1.328,0.565-1.991,0.848c-0.619,0.264-1.311,0.607-1.475,1.245c-0.222,0.86,0.76,1.648,1.672,1.62
		c0.911-0.028,1.703-0.587,2.428-1.125c0.524-0.389,1.027-0.87,1.118-1.504C296.965,453.641,295.747,453.728,295.034,453.792z"/>
	<path fill="none" stroke="#0000FF" stroke-linecap="round" stroke-linejoin="round" stroke-miterlimit="10" d="M319.75,457.56
		c-1.566,1.698-3.059,3.799-2.806,6.091c0.063,0.572,0.235,1.13,0.27,1.703c0.038,0.628-0.089,1.254-0.162,1.879
		c-0.31,2.645,0.37,5.394,1.879,7.592c2.956,4.306,8.511,6.005,13.721,6.527c7.069,0.708,15.066-0.637,19.415-6.237
		c1.394-1.795,2.315-4.335,1.183-6.305c-1.47-2.561-5.63-2.867-6.6-5.654c-0.346-0.996-0.178-2.088-0.254-3.138
		c-0.186-2.563-1.866-4.848-3.998-6.294c-2.131-1.444-4.676-2.154-7.208-2.636C331.133,450.318,322.798,454.256,319.75,457.56z"/>
	<path fill="none" stroke="#0000FF" stroke-linecap="round" stroke-linejoin="round" stroke-miterlimit="10" d="M385.05,436.126
		c0.736,1.646-0.491,3.54-1.959,4.586c-1.469,1.046-3.254,1.689-4.444,3.043c-1.555,1.77-1.739,4.43-1.046,6.681
		c0.692,2.252,2.131,4.187,3.572,6.05c0.583,0.755,1.203,1.603,1.135,2.555c-0.079,1.098-1.04,1.917-1.408,2.953
		c-0.264,0.745-0.209,1.559-0.221,2.35c-0.062,3.829-1.844,7.501-4.418,10.335c-1.175,1.292-2.624,2.739-2.358,4.466
		c0.395,2.568,4.143,2.955,6.394,1.66c2.252-1.294,3.971-3.548,6.467-4.268c1.59-0.458,3.285-0.225,4.94-0.216
		c2.617,0.013,5.236-0.566,7.61-1.664c0.902-0.418,2.485-1.007,3.174-1.793c0.691-0.79,0.895-2.141,1.07-3.143
		c0.405-2.321,0.342-4.807,1.483-6.937c0.966-1.805,2.677-3.073,3.974-4.657c1.172-1.429,2.008-3.132,2.423-4.934
		c0.391-1.699,0.35-3.653-0.784-4.976c-1.161-1.354-3.089-1.663-4.782-2.222c-3.659-1.21-6.625-3.857-9.686-6.198
		c-3.061-2.341-6.572-4.508-10.425-4.465L385.05,436.126z"/>
</g>
<g>
</g>
<g>
</g>
<g>
</g>
<g>
</g>
<g>
</g>
<g>
</g>
</svg>
