<?xml version="1.0" encoding="iso-8859-1"?>
<!-- Generator: Adobe Illustrator 25.2.3, SVG Export Plug-In . SVG Version: 6.00 Build 0)  -->
<svg version="1.1" id="Calque_1" xmlns="http://www.w3.org/2000/svg" xmlns:xlink="http://www.w3.org/1999/xlink" x="0px" y="0px"
	 width="1440px" height="325px" viewBox="0 0 1440 325" enable-background="new 0 0 1440 325" xml:space="preserve">
<g>
	<path fill="none" stroke="#0000FF" stroke-linecap="round" stroke-linejoin="round" stroke-miterlimit="10" d="M807.706,256.368
		c-2.279,0.501-3.572,3.52-2.366,5.523c0.659,1.095,1.862,1.819,2.361,2.995c0.675,1.59-0.148,3.487,0.402,5.125
		c0.814,2.428,4.106,3.089,5.375,5.311c0.465,0.812,0.458,2.097-0.414,2.431c-1.165,0.447-1.989-1.231-3.146-1.698
		c-0.971-0.394-2.139,0.199-2.656,1.113c-0.518,0.914-0.503,2.043-0.273,3.068c0.588,2.618,2.683,4.946,5.319,5.404
		c2.636,0.458,5.585-1.291,6.106-3.923c0.305-1.546-0.168-3.236,0.478-4.673c0.475-1.056,1.466-1.766,2.262-2.607
		c0.796-0.842,1.439-2.062,0.988-3.129c-0.485-1.145-2.071-1.708-2.156-2.949c-0.094-1.361,1.656-2.056,2.233-3.291
		c0.683-1.466-0.573-3.211-2.085-3.778c-1.512-0.566-3.184-0.362-4.795-0.45s-3.4-0.621-4.136-2.062
		c-0.236-0.463-0.367-0.973-0.57-1.452C810.006,255.847,807.706,256.368,807.706,256.368z"/>
	<path fill="none" stroke="#0000FF" stroke-linecap="round" stroke-linejoin="round" stroke-miterlimit="10" d="M824.936,264.716
		c-0.262,0.622-0.193,1.435,0.34,1.852c0.763,0.598,2.035-0.088,2.165-1.046c0.13-0.958-0.918-2.228-1.54-2.201
		C825.278,263.349,825.198,264.093,824.936,264.716z"/>
	<path fill="none" stroke="#0000FF" stroke-linecap="round" stroke-linejoin="round" stroke-miterlimit="10" d="M843.417,265.662
		c-2.184,0.433-3.321,3.49-1.956,5.259c1.215,1.573,3.612,1.805,4.851,3.359c0.31,0.39,0.54,0.855,0.93,1.165
		c0.774,0.615,1.877,0.427,2.862,0.48c0.984,0.053,2.17,0.731,1.97,1.701c-0.18,0.874-1.275,1.108-2.071,1.504
		c-0.696,0.346-1.286,0.985-1.4,1.757c-0.113,0.772,0.363,1.638,1.124,1.801c1.082,0.23,2.034-0.927,3.141-0.9
		c1.892,0.043,2.202,3.103,3.965,3.796c1.229,0.484,2.64-0.497,3.116-1.736c0.476-1.24,0.276-2.624,0.07-3.936
		c-0.275-1.743-0.575-3.553-1.584-4.998c-0.807-1.155-2.002-1.977-2.911-3.053c-0.941-1.118-1.536-2.496-2.474-3.617
		C848.859,263.231,843.417,265.662,843.417,265.662z"/>
	<path fill="none" stroke="#0000FF" stroke-linecap="round" stroke-linejoin="round" stroke-miterlimit="10" d="M886.083,266.293
		c-0.108-1.803-1.434-2.813-1.742-4.247c-0.315-1.462,0.915-3.014,2.394-3.161c1.479-0.146,2.929,1.008,3.268,2.465
		c0.315,1.355-0.145,2.992,0.791,4.017c0.351,0.384,0.842,0.601,1.324,0.794c1.242,0.496,2.519,0.901,3.819,1.209
		c1.195,0.285,2.476,0.52,3.391,1.347c0.914,0.826,1.198,2.495,0.214,3.235c-1.235,0.928-2.907-0.349-4.447-0.424
		c-1.778-0.087-3.202,1.455-4.915,1.943c-1.955,0.556-4.025-0.317-6.053-0.214c-0.307,0.016-0.639,0.065-0.858,0.284
		c-0.362,0.363-0.235,0.969-0.101,1.465c0.519,1.938,0.698,4.119-0.304,5.854c-1.004,1.734-3.544,2.635-5.081,1.357
		c-1.833-1.525-1.036-4.643-2.352-6.635c-0.316-0.479-0.745-0.873-1.069-1.347c-0.972-1.423-0.849-3.372-0.166-4.957
		c0.607-1.412,1.812-2.741,3.339-2.795c1.616-0.057,2.896,1.268,4.297,2.082c1.399,0.813,3.727,0.754,4.064-0.837L886.083,266.293z"
		/>
	<path fill="none" stroke="#0000FF" stroke-linecap="round" stroke-linejoin="round" stroke-miterlimit="10" d="M897.634,280.333
		c-1.282-0.173-2.136,0.613-2.975,1.328c-0.446,0.378-0.846,0.848-0.993,1.416c-0.338,1.312,0.963,2.664,2.311,2.633
		c1.347-0.033,2.499-1.156,2.894-2.453C899.257,281.992,898.916,280.507,897.634,280.333z"/>
	<path fill="none" stroke="#0000FF" stroke-linecap="round" stroke-linejoin="round" stroke-miterlimit="10" d="M906.295,266.151
		c-0.542,0.051-1.009,0.45-1.514,0.674c-0.471,0.21-0.996,0.483-1.121,0.991c-0.169,0.684,0.578,1.312,1.27,1.289
		c0.693-0.023,1.294-0.467,1.846-0.895c0.399-0.309,0.781-0.692,0.851-1.197C907.763,266.031,906.837,266.1,906.295,266.151z"/>
	<path fill="none" stroke="#0000FF" stroke-linecap="round" stroke-linejoin="round" stroke-miterlimit="10" d="M923.034,268.837
		c-1.091,1.195-2.132,2.675-1.956,4.289c0.044,0.403,0.164,0.795,0.188,1.199c0.027,0.442-0.061,0.882-0.112,1.322
		c-0.217,1.862,0.257,3.798,1.309,5.345c2.061,3.033,5.932,4.229,9.562,4.596c4.927,0.498,10.501-0.449,13.532-4.391
		c0.972-1.264,1.613-3.052,0.824-4.44c-1.025-1.803-3.923-2.017-4.6-3.981c-0.241-0.701-0.124-1.47-0.177-2.209
		c-0.129-1.805-1.3-3.414-2.786-4.431c-1.485-1.018-3.259-1.517-5.023-1.857C930.967,263.738,925.158,266.51,923.034,268.837z"/>
	<path fill="none" stroke="#0000FF" stroke-linecap="round" stroke-linejoin="round" stroke-miterlimit="10" d="M967.941,253.941
		c0.512,1.152-0.342,2.477-1.365,3.209s-2.267,1.183-3.096,2.13c-1.083,1.239-1.211,3.101-0.729,4.676
		c0.482,1.575,1.485,2.929,2.489,4.233c0.407,0.529,0.839,1.122,0.791,1.788c-0.055,0.768-0.724,1.341-0.981,2.066
		c-0.184,0.522-0.145,1.092-0.154,1.645c-0.043,2.679-1.285,5.249-3.078,7.231c-0.818,0.905-1.828,1.917-1.643,3.126
		c0.276,1.797,2.886,2.067,4.455,1.161c1.568-0.906,2.766-2.482,4.504-2.986c1.109-0.321,2.289-0.158,3.442-0.152
		c1.823,0.01,3.649-0.395,5.302-1.164c0.628-0.291,1.731-0.704,2.211-1.254c0.482-0.553,0.623-1.499,0.746-2.2
		c0.283-1.625,0.238-3.364,1.033-4.854c0.674-1.263,1.865-2.15,2.769-3.258c0.816-1,1.398-2.193,1.688-3.453
		c0.273-1.189,0.243-2.557-0.547-3.483c-0.808-0.948-2.152-1.164-3.332-1.556c-2.549-0.846-4.615-2.699-6.748-4.336
		c-2.133-1.638-4.578-3.155-7.263-3.124L967.941,253.941z"/>
	<path fill="none" stroke="#0000FF" stroke-linecap="round" stroke-linejoin="round" stroke-miterlimit="10" d="M884.536,3.014
		c-3.155,1.939-5.248,5.737-5.93,9.317c-1.104,5.786-0.836,12.517-5.133,16.52c-0.32,0.297-0.656,0.565-1.002,0.813
		c-0.378,0.11-0.707,0.333-1.061,0.566c-0.72,0.474-1.456,0.825-2.271,1.103c-1.695,0.579-3.466,0.894-5.227,1.191
		c-3.14,0.529-6.419,0.972-9.223,2.597c-1.936,1.123-3.676,3.532-2.564,5.483c0.518,0.911,1.537,1.443,2.064,2.349
		c0.927,1.592-0.088,3.751-1.663,4.697c-1.575,0.946-3.505,1.003-5.339,1.035c-6.065,0.104-12.904-0.102-17.048-4.559
		c-3.548-3.814-5.646-10.772-10.803-10.162c-4.798,0.567-5.699,7.434-3.892,11.94c1.489,3.715,3.815,7.183,4.105,11.276
		c-0.004-0.061-0.013-0.12-0.019-0.181c0.051,0.877-0.016,1.76-0.24,2.65c-1.297,5.13-7.452,7.58-12.679,6.968
		c-5.226-0.611-10.253-7.063-15.176-8.933c-7.201-2.737-18.627-3.827-26.126-2.076c-2.373,0.554-0.94,5.319-2.989,6.647
		c-1.894,1.228-3.635,3.692-2.416,5.599c1.354,2.119,4.906,1.277,6.683,3.053c2.518,2.52-0.865,6.54-1.165,10.1
		c-0.338,4.011,3.55,7.156,7.386,8.302c3.837,1.145,8.019,1.128,11.63,2.863c4.455,2.141,7.867,6.822,12.207,8.584
		c0,0,4.248,3.249,5.65,3.102c1.401-0.149,9.905-0.991,12.431,0c1.838,0.721,4.279,1.37,3.601,3.233
		c-1.009,2.775-8.224-1.505-9.995-1.09c-4.456,1.044-3.093,5.31-3.114,9.913c-0.022,4.602,3.397,8.995,7.843,10.081
		c2.061,0.503,4.239,0.503,6.31,0.925l-0.202,0.125c0.02,0.006,0.038,0.016,0.057,0.022c0.172,0.062,0.344,0.128,0.512,0.204
		c3.59,1.607,5.029,5.969,5.401,9.903s0.113,8.091,1.887,11.616c1.452,2.885,1.8,5.324,3.682,7.945
		c3.64,5.069,6.408,11.885,3.48,17.401c-2.708-4.913-6.499-16.658-11.649-18.831c0.914,15.244-2.806,38.502-9.556,52.18
		c-2.466,4.996-5.412,11.019-2.495,15.762c3.529,5.741,11.939,4.294,18.648,4.19c1.605-0.025,3.196,0.071,4.774,0.263
		c19.665,2.393,43.782,22.123,63.387,18.123c3.072-0.626,6.116-1.843,8.351-4.054c3.671-3.633-1.854-11.2,0.688-15.706
		c4.111-7.286,12.432-11.068,20.877-11.421c0.001-0.001,0.003-0.001,0.004-0.002c2.492-0.104,4.997,0.09,7.407,0.582
		c7.34,1.501,14.089,5.241,21.441,6.674c16.246,3.166,34.04-6.828,39.885-22.402c0.971-2.588,1.579-5.698,0.002-7.965
		c-1.332-1.912-3.774-2.588-5.894-3.538c0,0-3.44-2.592-5.523-10.537c-0.059-0.226-1.305-5.677-2.11-11.838
		c-0.603-4.605-0.96-9.607-0.39-13.124c0.665-4.108,1.813-8.305,0.895-12.364c-0.918-4.059-4.897-7.823-8.873-6.67
		c-2.357,0.682-3.955,2.805-5.833,4.391c-1.877,1.587-4.815,2.633-6.669,1.019c-1.564-1.36-1.433-3.79-1-5.843
		c0.013-0.061,0.026-0.123,0.038-0.183c1.96-8.832,6.5-17.068,12.908-23.419c3.452-3.42,7.416-6.292,10.788-9.79l1.523-1.69
		c2.671-3.169,4.751-6.899,5.097-11.002c0.548-6.472-3.149-13.542,0.101-19.155c1.589-2.743,4.762-4.945,4.542-8.112
		c-0.238-3.415-4.176-5.069-7.453-5.988c-10.514-2.952-20.965-6.122-31.416-9.294c-5.585-1.695-6.655-4.568-11.968-6.992
		c-3.454-1.575-6.725-5.422-9.945-7.5c0.001-0.001,0.001-0.002,0.001-0.003c-0.052-0.032-0.103-0.067-0.156-0.099
		c0.038,0.025,0.079,0.053,0.117,0.078c-3.384-2.074-11.176-1.134-14.428-3.383c-3.993-2.762-8.041-5.572-11.144-9.316
		c-1.601-1.932-2.928-4.086-4.599-5.956c-0.175-0.196-0.354-0.388-0.535-0.577C902.129,2.323,884.536,3.014,884.536,3.014z"/>
	<path fill="none" stroke="#0000FF" stroke-linecap="round" stroke-linejoin="round" stroke-miterlimit="10" d="M1439.5,283.607
		c-121.994-17.988-228.617,41.631-329.549,39.327c-75.75,0-99.592-39.433-94.027-75.549c0.63-4.095,0.089-6.173,0.089-6.173
		c1.331-4.984,3.701-9.831,3.198-14.937c-0.295-3.002-1.582-5.85-1.754-8.862c-0.143-2.489,0.171-5.635-2.002-6.813l-0.612-0.196
		c-1.467-0.311-2.938,0.836-3.497,2.243c-0.56,1.407-0.421,2.99-0.2,4.49c0.116,0.785,0.237,1.646-0.173,2.323
		c-0.232,0.384-0.61,0.653-0.984,0.897c-4.355,2.837-10.112,3.998-12.902,8.411c-2.281,3.609-1.784,8.419-0.029,12.317
		c1.755,3.897,4.599,7.165,7.049,10.656c0.984,1.401,1.929,2.868,3.262,3.933c1.332,1.065,2.581,1.67,4.172,1.069"/>
</g>
</svg>
